2700 0 1 0           
15 SolidWorks 2018 14 ACIS 27.0.2 NT 24 Wed Feb 27 20:58:49 2019 
1 9.9999999999999995e-07 1e-10 
T @52 745G3DPUP6MY3WZ6QZZJ7TZKA4S3FGN5F864PC7AU8FER8NDBDR3 
-0 body $1 -1 -1 $-1 0 $2 $-1 $-1 F #
-1 name_attrib-gen-attrib $-1 -1 $-1 $-1 $0 2 1 1 1 1 1 1 1 1 1 1 1 1 1 0 1 1 1 @9 ПР-4(4шт) #
-2 lump $3 -1 -1 $-1 $-1 $4 $0 F #
-3 rgb_color-st-attrib $-1 -1 $-1 $-1 $2 2 1 2 1 1 1 1 1 1 1 1 1 1 1 0 1 1 1 0.792156862745098 0.81960784313725488 0.93333333333333335 #
-4 shell $-1 -1 -1 $-1 $-1 $-1 $5 $-1 $2 F #
-5 face $6 -1 -1 $-1 $7 $8 $4 $-1 $9 reversed single F T 20.001333333333314 26.667999999999971 -3.1415926535897913 -1.5673598360750536e-15 #
-6 integer_attrib-name_attrib-gen-attrib $-1 -1 $-1 $-1 $5 2 1 2 1 1 1 1 1 1 1 1 1 1 1 0 1 1 1 @15 Вырез-Выт-нуть2 0 #
-7 face $10 -1 -1 $-1 $11 $12 $4 $-1 $13 reversed single F T 20.001333333333303 26.667999999999953 -3.1415926535897913 -1.5673598360750517e-15 #
-8 loop $-1 -1 -1 $-1 $-1 $14 $5 F unknown #
-9 cone-surface $-1 -1 -1 $-1 -52.275721864665847 83.832391835315406 0.74912629439056955 1 7.8362767619244695e-17 7.8646222383090686e-17 0 0 -0.75000000000000022 1 I I 0 1 0.75000000000000022 forward I I I I #
-10 integer_attrib-name_attrib-gen-attrib $-1 -1 $-1 $-1 $7 2 1 2 1 1 1 1 1 1 1 1 1 1 1 0 1 1 1 @15 Вырез-Выт-нуть2 0 #
-11 face $15 -1 -1 $-1 $16 $17 $4 $-1 $18 reversed single F T 0 10.666666666666657 -3.1415926535897931 0 #
-12 loop $-1 -1 -1 $-1 $-1 $19 $7 F unknown #
-13 cone-surface $-1 -1 -1 $-1 -52.275721864665847 83.832391835315406 28.749126294390571 1 7.8362767619244695e-17 7.8646222383090686e-17 0 0 -0.75000000000000067 1 I I 0 1 0.75000000000000067 forward I I I I #
-14 coedge $-1 -1 -1 $-1 $20 $21 $22 $23 reversed $8 $-1 #
-15 integer_attrib-name_attrib-gen-attrib $-1 -1 $-1 $-1 $11 2 1 2 1 1 1 1 1 1 1 1 1 1 1 0 1 1 1 @15 Вырез-Выт-нуть2 0 #
-16 face $24 -1 -1 $-1 $25 $26 $4 $-1 $27 reversed single F T 0 10.666666666666657 -3.1415926535897931 0 #
-17 loop $-1 -1 -1 $-1 $-1 $28 $11 F unknown #
-18 cone-surface $-1 -1 -1 $-1 -44.27472186466585 92.282391835315423 14.699126294390574 -1 -0 -0 0 0 0.75000000000000067 1 I I 0 1 0.75000000000000067 forward I I I I #
-19 coedge $-1 -1 -1 $-1 $29 $30 $31 $32 reversed $12 $-1 #
-20 coedge $-1 -1 -1 $-1 $33 $14 $34 $35 forward $8 $-1 #
-21 coedge $-1 -1 -1 $-1 $14 $33 $36 $37 reversed $8 $-1 #
-22 coedge $-1 -1 -1 $-1 $38 $38 $14 $23 forward $39 $-1 #
-23 edge $-1 -1 -1 $-1 $40 1.2164049169486253e-48 $41 3.1415926535897931 $22 $42 forward @7 unknown F #
-24 integer_attrib-name_attrib-gen-attrib $-1 -1 $-1 $-1 $16 2 1 2 1 1 1 1 1 1 1 1 1 1 1 0 1 1 1 @15 Вырез-Выт-нуть2 0 #
-25 face $43 -1 -1 $-1 $44 $39 $4 $-1 $45 forward single F F #
-26 loop $-1 -1 -1 $-1 $-1 $46 $16 F unknown #
-27 cone-surface $-1 -1 -1 $-1 -44.27472186466585 92.282391835315423 4.6991262943905756 -1 -0 -0 0 0 0.75000000000000067 1 I I 0 1 0.75000000000000067 forward I I I I #
-28 coedge $-1 -1 -1 $-1 $47 $48 $49 $50 reversed $17 $-1 #
-29 coedge $-1 -1 -1 $-1 $51 $19 $52 $53 forward $12 $-1 #
-30 coedge $-1 -1 -1 $-1 $19 $51 $54 $55 reversed $12 $-1 #
-31 coedge $-1 -1 -1 $-1 $56 $56 $19 $32 forward $57 $-1 #
-32 edge $-1 -1 -1 $-1 $58 0 $59 3.1415926535897931 $31 $60 forward @7 unknown F #
-33 coedge $-1 -1 -1 $-1 $21 $20 $61 $62 forward $8 $-1 #
-34 coedge $-1 -1 -1 $-1 $63 $64 $20 $35 reversed $65 $-1 #
-35 edge $-1 -1 -1 $-1 $40 0.01500099999999999 $66 0.020000999999999984 $20 $67 forward @7 unknown F #
-36 coedge $-1 -1 -1 $-1 $64 $63 $21 $37 forward $65 $-1 #
-37 edge $-1 -1 -1 $-1 $41 0.01500099999999999 $68 0.020000999999999984 $36 $69 forward @7 unknown F #
-38 coedge $-1 -1 -1 $-1 $22 $22 $63 $70 forward $39 $-1 #
-39 loop $-1 -1 -1 $-1 $57 $38 $25 F unknown #
-40 vertex $-1 -1 -1 $-1 $35 $71 #
-41 vertex $-1 -1 -1 $-1 $23 $72 #
-42 ellipse-curve $-1 -1 -1 $-1 -37.274721864665857 83.832391835315406 0.74912629439057077 1 7.8362767619244683e-17 7.8646222383090686e-17 0 0 0.75000000000000011 1 I I #
-43 integer_attrib-name_attrib-gen-attrib $-1 -1 $-1 $-1 $25 2 1 2 1 1 1 1 1 1 1 1 1 1 1 0 1 1 1 @15 Вырез-Выт-нуть2 0 #
-44 face $73 -1 -1 $-1 $74 $75 $4 $-1 $76 reversed single F F #
-45 plane-surface $-1 -1 -1 $-1 -37.274721864665857 41.43087906468822 43.421399378796515 -1 -7.8362767619244683e-17 -7.8646222383090686e-17 -7.8646222383090681e-14 0 1000 forward_v I I I I #
-46 coedge $-1 -1 -1 $-1 $77 $78 $79 $80 reversed $26 $-1 #
-47 coedge $-1 -1 -1 $-1 $81 $28 $82 $83 forward $17 $-1 #
-48 coedge $-1 -1 -1 $-1 $28 $81 $84 $85 reversed $17 $-1 #
-49 coedge $-1 -1 -1 $-1 $86 $86 $28 $50 forward $87 $-1 #
-50 edge $-1 -1 -1 $-1 $88 -3.1415926535897931 $89 0 $49 $90 forward @7 unknown F #
-51 coedge $-1 -1 -1 $-1 $30 $29 $91 $92 forward $12 $-1 #
-52 coedge $-1 -1 -1 $-1 $93 $94 $29 $53 reversed $95 $-1 #
-53 edge $-1 -1 -1 $-1 $58 0.01500099999999999 $96 0.020000999999999984 $29 $97 forward @7 unknown F #
-54 coedge $-1 -1 -1 $-1 $94 $93 $30 $55 forward $95 $-1 #
-55 edge $-1 -1 -1 $-1 $59 0.01500099999999999 $98 0.020000999999999984 $54 $99 forward @7 unknown F #
-56 coedge $-1 -1 -1 $-1 $31 $31 $93 $100 forward $57 $-1 #
-57 loop $-1 -1 -1 $-1 $101 $56 $25 F unknown #
-58 vertex $-1 -1 -1 $-1 $53 $102 #
-59 vertex $-1 -1 -1 $-1 $32 $103 #
-60 ellipse-curve $-1 -1 -1 $-1 -37.274721864665857 83.832391835315406 28.749126294390571 1 7.8362767619244683e-17 7.8646222383090686e-17 0 0 0.75000000000000067 1 I I #
-61 coedge $-1 -1 -1 $-1 $104 $104 $33 $62 reversed $75 $-1 #
-62 edge $-1 -1 -1 $-1 $66 -3.1415926535897931 $68 0 $33 $105 forward @7 unknown F #
-63 coedge $-1 -1 -1 $-1 $36 $34 $38 $70 reversed $65 $-1 #
-64 coedge $-1 -1 -1 $-1 $34 $36 $104 $106 forward $65 $-1 #
-65 loop $-1 -1 -1 $-1 $-1 $34 $107 F unknown #
-66 vertex $-1 -1 -1 $-1 $35 $108 #
-67 straight-curve $-1 -1 -1 $-1 -52.275721864665847 83.832391835315406 1.4991262943905699 1000 7.8362767619244698e-14 7.8646222383090681e-14 I I #
-68 vertex $-1 -1 -1 $-1 $62 $109 #
-69 straight-curve $-1 -1 -1 $-1 -52.275721864665847 83.832391835315406 -0.00087370560943066979 1000 7.8362767619244698e-14 7.8646222383090681e-14 I I #
-70 edge $-1 -1 -1 $-1 $41 -3.1415926535897931 $40 1.2164049169486253e-48 $38 $110 forward @7 unknown F #
-71 point $-1 -1 -1 $-1 -37.274721864665857 83.832391835315406 1.499126294390571 #
-72 point $-1 -1 -1 $-1 -37.274721864665857 83.832391835315406 -0.00087370560942947716 #
-73 integer_attrib-name_attrib-gen-attrib $-1 -1 $-1 $-1 $44 2 1 2 1 1 1 1 1 1 1 1 1 1 1 0 1 1 1 @15 Вырез-Выт-нуть2 0 #
-74 face $111 -1 -1 $-1 $112 $113 $4 $-1 $114 reversed single F F #
-75 loop $-1 -1 -1 $-1 $115 $104 $44 F unknown #
-76 plane-surface $-1 -1 -1 $-1 -32.274721864665857 41.43087906468822 43.421399378796515 -1 -7.8362767619244683e-17 -7.8646222383090686e-17 -7.8646222383090681e-14 0 1000 forward_v I I I I #
-77 coedge $-1 -1 -1 $-1 $116 $46 $117 $118 forward $26 $-1 #
-78 coedge $-1 -1 -1 $-1 $46 $116 $119 $120 reversed $26 $-1 #
-79 coedge $-1 -1 -1 $-1 $121 $121 $46 $80 forward $122 $-1 #
-80 edge $-1 -1 -1 $-1 $123 0 $124 3.1415926535897931 $79 $125 forward @7 unknown F #
-81 coedge $-1 -1 -1 $-1 $48 $47 $126 $127 forward $17 $-1 #
-82 coedge $-1 -1 -1 $-1 $128 $129 $47 $83 reversed $130 $-1 #
-83 edge $-1 -1 -1 $-1 $88 -0 $131 0.0080000000000000002 $47 $132 forward @7 unknown F #
-84 coedge $-1 -1 -1 $-1 $129 $128 $48 $85 forward $130 $-1 #
-85 edge $-1 -1 -1 $-1 $89 -0 $133 0.0080000000000000002 $84 $134 forward @7 unknown F #
-86 coedge $-1 -1 -1 $-1 $49 $49 $128 $135 forward $87 $-1 #
-87 loop $-1 -1 -1 $-1 $-1 $86 $136 F unknown #
-88 vertex $-1 -1 -1 $-1 $83 $137 #
-89 vertex $-1 -1 -1 $-1 $50 $138 #
-90 ellipse-curve $-1 -1 -1 $-1 -44.27472186466585 92.282391835315423 14.699126294390574 -1 0 0 0 0 0.75000000000000067 1 I I #
-91 coedge $-1 -1 -1 $-1 $139 $139 $51 $92 reversed $115 $-1 #
-92 edge $-1 -1 -1 $-1 $96 -3.1415926535897931 $98 0 $51 $140 forward @7 unknown F #
-93 coedge $-1 -1 -1 $-1 $54 $52 $56 $100 reversed $95 $-1 #
-94 coedge $-1 -1 -1 $-1 $52 $54 $139 $141 forward $95 $-1 #
-95 loop $-1 -1 -1 $-1 $-1 $52 $142 F unknown #
-96 vertex $-1 -1 -1 $-1 $53 $143 #
-97 straight-curve $-1 -1 -1 $-1 -52.275721864665847 83.832391835315406 29.499126294390571 1000 7.8362767619244698e-14 7.8646222383090681e-14 I I #
-98 vertex $-1 -1 -1 $-1 $92 $144 #
-99 straight-curve $-1 -1 -1 $-1 -52.275721864665847 83.832391835315406 27.999126294390571 1000 7.8362767619244698e-14 7.8646222383090681e-14 I I #
-100 edge $-1 -1 -1 $-1 $59 -3.1415926535897931 $58 0 $56 $145 forward @7 unknown F #
-101 loop $-1 -1 -1 $-1 $-1 $146 $25 F unknown #
-102 point $-1 -1 -1 $-1 -37.274721864665857 83.832391835315406 29.499126294390571 #
-103 point $-1 -1 -1 $-1 -37.274721864665857 83.832391835315406 27.999126294390571 #
-104 coedge $-1 -1 -1 $-1 $61 $61 $64 $106 reversed $75 $-1 #
-105 ellipse-curve $-1 -1 -1 $-1 -32.274721864665864 83.832391835315406 0.74912629439057121 1 7.8362767619244683e-17 7.8646222383090686e-17 0 0 -0.75000000000000022 1 I I #
-106 edge $-1 -1 -1 $-1 $68 0 $66 3.1415926535897931 $64 $147 forward @7 unknown F #
-107 face $148 -1 -1 $-1 $-1 $65 $4 $-1 $149 reversed single F T 20.001333333333314 26.667999999999971 -2.0897782868700201e-15 3.1415926535897949 #
-108 point $-1 -1 -1 $-1 -32.274721864665864 83.832391835315406 1.4991262943905712 #
-109 point $-1 -1 -1 $-1 -32.274721864665864 83.832391835315406 -0.00087370560942904348 #
-110 ellipse-curve $-1 -1 -1 $-1 -37.274721864665857 83.832391835315406 0.74912629439057077 1 7.8362767619244683e-17 7.8646222383090686e-17 0 0 0.75000000000000011 1 I I #
-111 integer_attrib-name_attrib-gen-attrib $-1 -1 $-1 $-1 $74 2 1 2 1 1 1 1 1 1 1 1 1 1 1 0 1 1 1 @15 Вырез-Выт-нуть2 0 #
-112 face $150 -1 -1 $-1 $151 $152 $4 $-1 $153 reversed single F F #
-113 loop $-1 -1 -1 $-1 $-1 $154 $74 F unknown #
-114 plane-surface $-1 -1 -1 $-1 -37.274721864665857 74.382391835315403 -1.8008737056094266 -7.8646222383090686e-17 -1.0896504246085471e-17 1 1000 0 7.8646222383090681e-14 forward_v I I I I #
-115 loop $-1 -1 -1 $-1 $155 $139 $44 F unknown #
-116 coedge $-1 -1 -1 $-1 $78 $77 $156 $157 forward $26 $-1 #
-117 coedge $-1 -1 -1 $-1 $158 $159 $77 $118 reversed $160 $-1 #
-118 edge $-1 -1 -1 $-1 $123 -0 $161 0.0080000000000000002 $77 $162 forward @7 unknown F #
-119 coedge $-1 -1 -1 $-1 $159 $158 $78 $120 forward $160 $-1 #
-120 edge $-1 -1 -1 $-1 $124 -0 $163 0.0080000000000000002 $119 $164 forward @7 unknown F #
-121 coedge $-1 -1 -1 $-1 $79 $79 $158 $165 forward $122 $-1 #
-122 loop $-1 -1 -1 $-1 $-1 $121 $166 F unknown #
-123 vertex $-1 -1 -1 $-1 $118 $167 #
-124 vertex $-1 -1 -1 $-1 $80 $168 #
-125 ellipse-curve $-1 -1 -1 $-1 -44.27472186466585 92.282391835315423 4.6991262943905756 -1 0 0 0 0 -0.75000000000000067 1 I I #
-126 coedge $-1 -1 -1 $-1 $169 $169 $81 $127 reversed $170 $-1 #
-127 edge $-1 -1 -1 $-1 $131 -3.1415926535897931 $133 0 $81 $171 forward @7 unknown F #
-128 coedge $-1 -1 -1 $-1 $84 $82 $86 $135 reversed $130 $-1 #
-129 coedge $-1 -1 -1 $-1 $82 $84 $169 $172 forward $130 $-1 #
-130 loop $-1 -1 -1 $-1 $-1 $82 $173 F unknown #
-131 vertex $-1 -1 -1 $-1 $83 $174 #
-132 straight-curve $-1 -1 -1 $-1 -44.27472186466585 92.282391835315423 13.949126294390574 -1000 -0 -0 I I #
-133 vertex $-1 -1 -1 $-1 $127 $175 #
-134 straight-curve $-1 -1 -1 $-1 -44.27472186466585 92.282391835315423 15.449126294390576 -1000 -0 -0 I I #
-135 edge $-1 -1 -1 $-1 $89 0 $88 3.1415926535897931 $86 $176 forward @7 unknown F #
-136 face $177 -1 -1 $-1 $142 $87 $4 $-1 $178 forward single F F #
-137 point $-1 -1 -1 $-1 -44.27472186466585 92.282391835315423 13.949126294390574 #
-138 point $-1 -1 -1 $-1 -44.27472186466585 92.282391835315423 15.449126294390576 #
-139 coedge $-1 -1 -1 $-1 $91 $91 $94 $141 reversed $115 $-1 #
-140 ellipse-curve $-1 -1 -1 $-1 -32.274721864665864 83.832391835315406 28.749126294390571 1 7.8362767619244683e-17 7.8646222383090686e-17 0 0 -0.75000000000000067 1 I I #
-141 edge $-1 -1 -1 $-1 $98 0 $96 3.1415926535897931 $94 $179 forward @7 unknown F #
-142 face $180 -1 -1 $-1 $107 $95 $4 $-1 $181 reversed single F T 20.001333333333303 26.667999999999953 -2.0897782868700154e-15 3.1415926535897949 #
-143 point $-1 -1 -1 $-1 -32.274721864665864 83.832391835315406 29.499126294390571 #
-144 point $-1 -1 -1 $-1 -32.274721864665864 83.832391835315406 27.999126294390571 #
-145 ellipse-curve $-1 -1 -1 $-1 -37.274721864665857 83.832391835315406 28.749126294390571 1 7.8362767619244683e-17 7.8646222383090686e-17 0 0 0.75000000000000067 1 I I #
-146 coedge $-1 -1 -1 $-1 $182 $183 $184 $185 reversed $101 $-1 #
-147 ellipse-curve $-1 -1 -1 $-1 -32.274721864665864 83.832391835315406 0.74912629439057121 1 7.8362767619244683e-17 7.8646222383090686e-17 0 0 -0.75000000000000022 1 I I #
-148 integer_attrib-name_attrib-gen-attrib $-1 -1 $-1 $-1 $107 2 1 2 1 1 1 1 1 1 1 1 1 1 1 0 1 1 1 @15 Вырез-Выт-нуть2 0 #
-149 cone-surface $-1 -1 -1 $-1 -52.275721864665847 83.832391835315406 0.74912629439056955 1 7.8362767619244695e-17 7.8646222383090686e-17 0 0 -0.75000000000000022 1 I I 0 1 0.75000000000000022 forward I I I I #
-150 integer_attrib-name_attrib-gen-attrib $-1 -1 $-1 $-1 $112 2 1 2 1 1 1 1 1 1 1 1 1 1 1 0 1 1 1 @15 Вырез-Выт-нуть2 0 #
-151 face $186 -1 -1 $-1 $187 $188 $4 $-1 $189 forward single F T -7.8362767619244646e-17 0.49999999999999983 -2.2669531178651123 -1.5707963267948966 #
-152 loop $-1 -1 -1 $-1 $-1 $190 $112 F unknown #
-153 plane-surface $-1 -1 -1 $-1 -37.274721864665857 74.382391835315403 -1.8008737056094266 -7.8362767619244646e-17 1 -5.4237089214427433e-16 0 5.4237089214427436e-13 1000 forward_v I I I I #
-154 coedge $-1 -1 -1 $-1 $191 $192 $193 $194 forward $113 $-1 #
-155 loop $-1 -1 -1 $-1 $195 $196 $44 F unknown #
-156 coedge $-1 -1 -1 $-1 $197 $197 $116 $157 reversed $198 $-1 #
-157 edge $-1 -1 -1 $-1 $161 0 $163 3.1415926535897931 $116 $199 forward @7 unknown F #
-158 coedge $-1 -1 -1 $-1 $119 $117 $121 $165 reversed $160 $-1 #
-159 coedge $-1 -1 -1 $-1 $117 $119 $197 $200 forward $160 $-1 #
-160 loop $-1 -1 -1 $-1 $-1 $117 $201 F unknown #
-161 vertex $-1 -1 -1 $-1 $118 $202 #
-162 straight-curve $-1 -1 -1 $-1 -44.27472186466585 92.282391835315423 3.9491262943905752 -1000 -0 -0 I I #
-163 vertex $-1 -1 -1 $-1 $157 $203 #
-164 straight-curve $-1 -1 -1 $-1 -44.27472186466585 92.282391835315423 5.4491262943905765 -1000 -0 -0 I I #
-165 edge $-1 -1 -1 $-1 $124 -3.1415926535897931 $123 0 $121 $204 forward @7 unknown F #
-166 face $205 -1 -1 $-1 $173 $122 $4 $-1 $206 reversed single F F #
-167 point $-1 -1 -1 $-1 -44.27472186466585 92.282391835315423 3.9491262943905752 #
-168 point $-1 -1 -1 $-1 -44.27472186466585 92.282391835315423 5.4491262943905765 #
-169 coedge $-1 -1 -1 $-1 $126 $126 $129 $172 reversed $170 $-1 #
-170 loop $-1 -1 -1 $-1 $198 $169 $207 F unknown #
-171 ellipse-curve $-1 -1 -1 $-1 -52.27472186466585 92.282391835315423 14.699126294390574 -1 0 0 0 0 0.75000000000000067 1 I I #
-172 edge $-1 -1 -1 $-1 $133 0 $131 3.1415926535897931 $129 $208 forward @7 unknown F #
-173 face $209 -1 -1 $-1 $136 $130 $4 $-1 $210 reversed single F T 0 10.666666666666657 0 3.1415926535897931 #
-174 point $-1 -1 -1 $-1 -52.27472186466585 92.282391835315423 13.949126294390574 #
-175 point $-1 -1 -1 $-1 -52.27472186466585 92.282391835315423 15.449126294390576 #
-176 ellipse-curve $-1 -1 -1 $-1 -44.27472186466585 92.282391835315423 14.699126294390574 -1 0 0 0 0 0.75000000000000067 1 I I #
-177 integer_attrib-name_attrib-gen-attrib $-1 -1 $-1 $-1 $136 2 1 2 1 1 1 1 1 1 1 1 1 1 1 0 1 1 1 @15 Вырез-Выт-нуть2 0 #
-178 plane-surface $-1 -1 -1 $-1 -44.27472186466585 92.282391835315423 14.699126294390574 -1 0 0 0 0 1000 forward_v I I I I #
-179 ellipse-curve $-1 -1 -1 $-1 -32.274721864665864 83.832391835315406 28.749126294390571 1 7.8362767619244683e-17 7.8646222383090686e-17 0 0 -0.75000000000000067 1 I I #
-180 integer_attrib-name_attrib-gen-attrib $-1 -1 $-1 $-1 $142 2 1 2 1 1 1 1 1 1 1 1 1 1 1 0 1 1 1 @15 Вырез-Выт-нуть2 0 #
-181 cone-surface $-1 -1 -1 $-1 -52.275721864665847 83.832391835315406 28.749126294390571 1 7.8362767619244695e-17 7.8646222383090686e-17 0 0 -0.75000000000000067 1 I I 0 1 0.75000000000000067 forward I I I I #
-182 coedge $-1 -1 -1 $-1 $211 $146 $212 $213 forward $101 $-1 #
-183 coedge $-1 -1 -1 $-1 $146 $214 $215 $216 reversed $101 $-1 #
-184 coedge $-1 -1 -1 $-1 $217 $218 $146 $185 forward $219 $-1 #
-185 edge $-1 -1 -1 $-1 $220 1 $221 0 $184 $222 forward @7 unknown F #
-186 integer_attrib-name_attrib-gen-attrib $-1 -1 $-1 $-1 $151 2 1 2 1 1 1 1 1 1 1 1 1 1 1 0 1 1 1 @15 Вырез-Выт-нуть2 0 #
-187 face $223 -1 -1 $-1 $224 $225 $4 $-1 $226 reversed single F T -6.5733857526328793e-17 0.1111111111111112 0.87463953572468101 1.7665698941134966 #
-188 loop $-1 -1 -1 $-1 $-1 $227 $151 F unknown #
-189 cone-surface $-1 -1 -1 $-1 -37.274721864665857 84.382391835315417 23.786391409132154 1 7.8362767619244683e-17 7.8646222383090686e-17 0 0 -10.000000000000004 1 I I 0 1 10.000000000000004 forward I I I I #
-190 coedge $-1 -1 -1 $-1 $228 $229 $230 $231 reversed $152 $-1 #
-191 coedge $-1 -1 -1 $-1 $232 $154 $233 $234 forward $113 $-1 #
-192 coedge $-1 -1 -1 $-1 $154 $232 $235 $236 forward $113 $-1 #
-193 coedge $-1 -1 -1 $-1 $237 $238 $154 $194 reversed $155 $-1 #
-194 edge $-1 -1 -1 $-1 $239 1 $240 0 $154 $241 forward @7 unknown F #
-195 loop $-1 -1 -1 $-1 $-1 $242 $44 F unknown #
-196 coedge $-1 -1 -1 $-1 $238 $243 $244 $245 reversed $155 $-1 #
-197 coedge $-1 -1 -1 $-1 $156 $156 $159 $200 reversed $198 $-1 #
-198 loop $-1 -1 -1 $-1 $246 $197 $207 F unknown #
-199 ellipse-curve $-1 -1 -1 $-1 -52.27472186466585 92.282391835315423 4.6991262943905756 -1 0 0 0 0 -0.75000000000000067 1 I I #
-200 edge $-1 -1 -1 $-1 $163 -3.1415926535897931 $161 0 $159 $247 forward @7 unknown F #
-201 face $248 -1 -1 $-1 $166 $160 $4 $-1 $249 reversed single F T 0 10.666666666666657 0 3.1415926535897931 #
-202 point $-1 -1 -1 $-1 -52.27472186466585 92.282391835315423 3.9491262943905752 #
-203 point $-1 -1 -1 $-1 -52.27472186466585 92.282391835315423 5.4491262943905765 #
-204 ellipse-curve $-1 -1 -1 $-1 -44.27472186466585 92.282391835315423 4.6991262943905756 -1 0 0 0 0 -0.75000000000000067 1 I I #
-205 integer_attrib-name_attrib-gen-attrib $-1 -1 $-1 $-1 $166 2 1 2 1 1 1 1 1 1 1 1 1 1 1 0 1 1 1 @15 Вырез-Выт-нуть2 0 #
-206 plane-surface $-1 -1 -1 $-1 -44.27472186466585 92.282391835315423 4.6991262943905756 1 0 0 0 0 -1000 forward_v I I I I #
-207 face $250 -1 -1 $-1 $201 $170 $4 $-1 $251 reversed single F F #
-208 ellipse-curve $-1 -1 -1 $-1 -52.27472186466585 92.282391835315423 14.699126294390574 -1 0 0 0 0 0.75000000000000067 1 I I #
-209 integer_attrib-name_attrib-gen-attrib $-1 -1 $-1 $-1 $173 2 1 2 1 1 1 1 1 1 1 1 1 1 1 0 1 1 1 @15 Вырез-Выт-нуть2 0 #
-210 cone-surface $-1 -1 -1 $-1 -44.27472186466585 92.282391835315423 14.699126294390574 -1 -0 -0 0 0 0.75000000000000067 1 I I 0 1 0.75000000000000067 forward I I I I #
-211 coedge $-1 -1 -1 $-1 $252 $182 $232 $253 forward $101 $-1 #
-212 coedge $-1 -1 -1 $-1 $254 $235 $182 $213 reversed $255 $-1 #
-213 edge $-1 -1 -1 $-1 $220 1.5707963267948966 $256 3.1415926535897931 $182 $257 forward @7 unknown F #
-214 coedge $-1 -1 -1 $-1 $183 $258 $259 $260 reversed $101 $-1 #
-215 coedge $-1 -1 -1 $-1 $261 $262 $183 $216 forward $263 $-1 #
-216 edge $-1 -1 -1 $-1 $221 1 $264 0 $215 $265 forward @7 unknown F #
-217 coedge $-1 -1 -1 $-1 $266 $184 $267 $268 reversed $219 $-1 #
-218 coedge $-1 -1 -1 $-1 $184 $266 $269 $270 forward $219 $-1 #
-219 loop $-1 -1 -1 $-1 $-1 $184 $271 F unknown #
-220 vertex $-1 -1 -1 $-1 $185 $272 #
-221 vertex $-1 -1 -1 $-1 $273 $274 #
-222 straight-curve $-1 -1 -1 $-1 -37.274721864665864 90.282391835315423 3.1991262943905747 0 -1000 3.2526065174565219e-13 I I #
-223 integer_attrib-name_attrib-gen-attrib $-1 -1 $-1 $-1 $187 2 1 2 1 1 1 1 1 1 1 1 1 1 1 0 1 1 1 @15 Вырез-Выт-нуть2 0 #
-224 face $275 -1 -1 $-1 $276 $277 $4 $-1 $278 forward single F T -9.2164528198137292e-17 2.4999999999999978 2.0572617498023185 4.9081625477032844 #
-225 loop $-1 -1 -1 $-1 $-1 $279 $187 F unknown #
-226 cone-surface $-1 -1 -1 $-1 -37.274721864665857 42.180210060381789 59.05643327805349 1 7.8362767619244683e-17 7.8646222383090686e-17 6.9388939039072284e-15 0 -45.000000000000028 1 I I 0 1 45.000000000000028 forward I I I I #
-227 coedge $-1 -1 -1 $-1 $280 $281 $243 $282 forward $188 $-1 #
-228 coedge $-1 -1 -1 $-1 $244 $190 $283 $284 forward $152 $-1 #
-229 coedge $-1 -1 -1 $-1 $190 $244 $281 $285 reversed $152 $-1 #
-230 coedge $-1 -1 -1 $-1 $286 $252 $190 $231 forward $101 $-1 #
-231 edge $-1 -1 -1 $-1 $287 1 $288 0 $230 $289 forward @7 unknown F #
-232 coedge $-1 -1 -1 $-1 $192 $191 $211 $253 reversed $113 $-1 #
-233 coedge $-1 -1 -1 $-1 $290 $291 $191 $234 reversed $292 $-1 #
-234 edge $-1 -1 -1 $-1 $240 -0.0050000000000000001 $293 -0 $191 $294 forward @7 unknown F #
-235 coedge $-1 -1 -1 $-1 $212 $295 $192 $236 reversed $255 $-1 #
-236 edge $-1 -1 -1 $-1 $256 0 $239 0.0050000000000000001 $192 $296 forward @7 unknown F #
-237 coedge $-1 -1 -1 $-1 $297 $193 $295 $298 forward $155 $-1 #
-238 coedge $-1 -1 -1 $-1 $193 $196 $290 $299 forward $155 $-1 #
-239 vertex $-1 -1 -1 $-1 $298 $300 #
-240 vertex $-1 -1 -1 $-1 $299 $301 #
-241 straight-curve $-1 -1 -1 $-1 -32.274721864665857 74.382391835315403 -1.8008737056094262 -0 -1000 -1.0896504246085471e-14 I I #
-242 coedge $-1 -1 -1 $-1 $302 $303 $304 $305 forward $195 $-1 #
-243 coedge $-1 -1 -1 $-1 $196 $306 $227 $282 reversed $155 $-1 #
-244 coedge $-1 -1 -1 $-1 $229 $228 $196 $245 forward $152 $-1 #
-245 edge $-1 -1 -1 $-1 $307 1 $308 0 $244 $309 forward @7 unknown F #
-246 loop $-1 -1 -1 $-1 $-1 $310 $207 F unknown #
-247 ellipse-curve $-1 -1 -1 $-1 -52.27472186466585 92.282391835315423 4.6991262943905756 -1 0 0 0 0 -0.75000000000000067 1 I I #
-248 integer_attrib-name_attrib-gen-attrib $-1 -1 $-1 $-1 $201 2 1 2 1 1 1 1 1 1 1 1 1 1 1 0 1 1 1 @15 Вырез-Выт-нуть2 0 #
-249 cone-surface $-1 -1 -1 $-1 -44.27472186466585 92.282391835315423 4.6991262943905756 -1 -0 -0 0 0 0.75000000000000067 1 I I 0 1 0.75000000000000067 forward I I I I #
-250 integer_attrib-name_attrib-gen-attrib $-1 -1 $-1 $-1 $207 2 1 2 1 1 1 1 1 1 1 1 1 1 1 0 1 1 1 @15 Вырез-Выт-нуть2 0 #
-251 plane-surface $-1 -1 -1 $-1 -52.27472186466585 -1.1754415142886691e-15 -1.1796933357463591e-15 1 0 0 0 0 -1000 forward_v I I I I #
-252 coedge $-1 -1 -1 $-1 $230 $211 $291 $311 forward $101 $-1 #
-253 edge $-1 -1 -1 $-1 $256 1 $293 0 $211 $312 forward @7 unknown F #
-254 coedge $-1 -1 -1 $-1 $295 $212 $313 $314 reversed $255 $-1 #
-255 loop $-1 -1 -1 $-1 $-1 $212 $315 F unknown #
-256 vertex $-1 -1 -1 $-1 $213 $316 #
-257 ellipse-curve $-1 -1 -1 $-1 -37.274721864665857 89.282391835315408 3.1991262943905734 -1 -7.8362767619244683e-17 -7.8646222383090686e-17 0 0 5 1 I I #
-258 coedge $-1 -1 -1 $-1 $214 $317 $318 $319 reversed $101 $-1 #
-259 coedge $-1 -1 -1 $-1 $320 $321 $214 $260 forward $322 $-1 #
-260 edge $-1 -1 -1 $-1 $264 1 $323 0 $259 $324 forward @7 unknown F #
-261 coedge $-1 -1 -1 $-1 $304 $215 $321 $325 forward $263 $-1 #
-262 coedge $-1 -1 -1 $-1 $215 $304 $326 $273 reversed $263 $-1 #
-263 loop $-1 -1 -1 $-1 $-1 $304 $327 F unknown #
-264 vertex $-1 -1 -1 $-1 $216 $328 #
-265 straight-curve $-1 -1 -1 $-1 -37.274721864665857 77.382391835315403 3.1991262943905734 -0 -1000 -0 I I #
-266 coedge $-1 -1 -1 $-1 $218 $217 $310 $329 reversed $219 $-1 #
-267 coedge $-1 -1 -1 $-1 $326 $330 $217 $268 forward $331 $-1 #
-268 edge $-1 -1 -1 $-1 $332 1 $221 0 $267 $333 forward @7 unknown F #
-269 coedge $-1 -1 -1 $-1 $334 $313 $218 $270 reversed $335 $-1 #
-270 edge $-1 -1 -1 $-1 $336 1 $220 0 $218 $337 forward @7 unknown F #
-271 face $338 -1 -1 $-1 $339 $219 $4 $-1 $340 reversed single F F #
-272 point $-1 -1 -1 $-1 -37.274721864665857 94.282391835315408 3.1991262943905734 #
-273 edge $-1 -1 -1 $-1 $221 1 $341 0 $326 $342 forward @7 unknown F #
-274 point $-1 -1 -1 $-1 -37.274721864665857 90.282391835315423 3.1991262943905734 #
-275 integer_attrib-name_attrib-gen-attrib $-1 -1 $-1 $-1 $224 2 1 2 1 1 1 1 1 1 1 1 1 1 1 0 1 1 1 @15 Вырез-Выт-нуть2 0 #
-276 face $343 -1 -1 $-1 $344 $345 $4 $-1 $346 forward single F T -7.5654742149147718e-17 0.090909090909090967 1.290366613292603 2.057261749802322 #
-277 loop $-1 -1 -1 $-1 $-1 $347 $224 F unknown #
-278 cone-surface $-1 -1 -1 $-1 -37.274721864665864 88.282391835315423 68.199126294390581 1 7.8362767619244683e-17 7.8646222383090686e-17 0 0 -2.0000000000000018 1 I I 0 1 2.0000000000000018 forward I I I I #
-279 coedge $-1 -1 -1 $-1 $348 $349 $306 $350 forward $225 $-1 #
-280 coedge $-1 -1 -1 $-1 $351 $227 $349 $352 reversed $188 $-1 #
-281 coedge $-1 -1 -1 $-1 $227 $351 $229 $285 forward $188 $-1 #
-282 edge $-1 -1 -1 $-1 $308 1.5707963267948966 $353 2.2669531178651123 $227 $354 forward @7 unknown F #
-283 coedge $-1 -1 -1 $-1 $291 $290 $228 $284 reversed $292 $-1 #
-284 edge $-1 -1 -1 $-1 $287 0 $307 0.0050000000000000001 $228 $355 forward @7 unknown F #
-285 edge $-1 -1 -1 $-1 $288 0 $308 0.0050000000000000001 $281 $356 forward @7 unknown F #
-286 coedge $-1 -1 -1 $-1 $357 $230 $351 $358 forward $101 $-1 #
-287 vertex $-1 -1 -1 $-1 $311 $359 #
-288 vertex $-1 -1 -1 $-1 $231 $360 #
-289 straight-curve $-1 -1 -1 $-1 -37.274721864665857 74.382391835315403 -1.8008737056094266 0 5.4237089214427436e-13 1000 I I #
-290 coedge $-1 -1 -1 $-1 $283 $233 $238 $299 reversed $292 $-1 #
-291 coedge $-1 -1 -1 $-1 $233 $283 $252 $311 reversed $292 $-1 #
-292 loop $-1 -1 -1 $-1 $-1 $291 $361 F unknown #
-293 vertex $-1 -1 -1 $-1 $234 $362 #
-294 straight-curve $-1 -1 -1 $-1 -37.274721864665857 79.382391835315417 -1.8008737056094266 -1000 -7.8362767619244685e-14 -7.8646222383090681e-14 I I #
-295 coedge $-1 -1 -1 $-1 $235 $254 $237 $298 reversed $255 $-1 #
-296 straight-curve $-1 -1 -1 $-1 -37.274721864665857 89.282391835315408 -1.8008737056094264 1000 7.8362767619244685e-14 7.8646222383090681e-14 I I #
-297 coedge $-1 -1 -1 $-1 $363 $237 $364 $365 reversed $155 $-1 #
-298 edge $-1 -1 -1 $-1 $239 -3.1415926535897931 $366 -1.5707963267948966 $237 $367 forward @7 unknown F #
-299 edge $-1 -1 -1 $-1 $307 1.5707963267948961 $240 3.1415926535897931 $238 $368 forward @7 unknown F #
-300 point $-1 -1 -1 $-1 -32.274721864665857 89.282391835315408 -1.8008737056094259 #
-301 point $-1 -1 -1 $-1 -32.274721864665857 79.382391835315417 -1.8008737056094262 #
-302 coedge $-1 -1 -1 $-1 $369 $242 $370 $371 forward $195 $-1 #
-303 coedge $-1 -1 -1 $-1 $242 $369 $372 $373 forward $195 $-1 #
-304 coedge $-1 -1 -1 $-1 $262 $261 $242 $305 reversed $263 $-1 #
-305 edge $-1 -1 -1 $-1 $341 1 $374 0 $242 $375 forward @7 unknown F #
-306 coedge $-1 -1 -1 $-1 $243 $376 $279 $350 reversed $155 $-1 #
-307 vertex $-1 -1 -1 $-1 $299 $377 #
-308 vertex $-1 -1 -1 $-1 $245 $378 #
-309 straight-curve $-1 -1 -1 $-1 -32.274721864665857 74.382391835315403 -1.8008737056094262 0 5.4237089214427436e-13 1000 I I #
-310 coedge $-1 -1 -1 $-1 $379 $380 $266 $329 forward $246 $-1 #
-311 edge $-1 -1 -1 $-1 $293 -3.1415926535897931 $287 -1.5707963267948961 $252 $381 forward @7 unknown F #
-312 straight-curve $-1 -1 -1 $-1 -37.274721864665857 74.382391835315403 -1.8008737056094266 -0 -1000 -1.0896504246085471e-14 I I #
-313 coedge $-1 -1 -1 $-1 $269 $364 $254 $314 forward $335 $-1 #
-314 edge $-1 -1 -1 $-1 $366 -0.0050000000000000001 $220 -0 $313 $382 forward @7 unknown F #
-315 face $383 -1 -1 $-1 $271 $255 $4 $-1 $384 forward single F T -7.8646222383090686e-17 1 -7.8362767619244707e-17 1.5707963267948966 #
-316 point $-1 -1 -1 $-1 -37.274721864665857 89.282391835315408 -1.8008737056094264 #
-317 coedge $-1 -1 -1 $-1 $258 $385 $386 $387 reversed $101 $-1 #
-318 coedge $-1 -1 -1 $-1 $388 $389 $258 $319 forward $390 $-1 #
-319 edge $-1 -1 -1 $-1 $323 1 $391 0 $318 $392 forward @7 unknown F #
-320 coedge $-1 -1 -1 $-1 $370 $259 $389 $393 forward $322 $-1 #
-321 coedge $-1 -1 -1 $-1 $259 $370 $261 $325 reversed $322 $-1 #
-322 loop $-1 -1 -1 $-1 $-1 $370 $394 F unknown #
-323 vertex $-1 -1 -1 $-1 $260 $395 #
-324 straight-curve $-1 -1 -1 $-1 -37.274721864665857 77.382391835315403 3.1991262943905734 0 0 1000 I I #
-325 edge $-1 -1 -1 $-1 $264 1 $374 0 $261 $396 forward @7 unknown F #
-326 coedge $-1 -1 -1 $-1 $372 $267 $262 $273 forward $331 $-1 #
-327 face $397 -1 -1 $-1 $394 $263 $4 $-1 $398 forward single F F #
-328 point $-1 -1 -1 $-1 -37.274721864665857 77.382391835315403 3.1991262943905734 #
-329 edge $-1 -1 -1 $-1 $336 1 $332 0 $310 $399 forward @7 unknown F #
-330 coedge $-1 -1 -1 $-1 $267 $400 $379 $401 reversed $331 $-1 #
-331 loop $-1 -1 -1 $-1 $-1 $372 $402 F unknown #
-332 vertex $-1 -1 -1 $-1 $401 $403 #
-333 straight-curve $-1 -1 -1 $-1 -52.27472186466585 90.282391835315423 3.1991262943905734 1000 7.8362767619244672e-14 7.8646222383090668e-14 I I #
-334 coedge $-1 -1 -1 $-1 $404 $269 $380 $405 reversed $335 $-1 #
-335 loop $-1 -1 -1 $-1 $-1 $364 $344 F unknown #
-336 vertex $-1 -1 -1 $-1 $405 $406 #
-337 straight-curve $-1 -1 -1 $-1 -52.27472186466585 94.282391835315408 3.1991262943905725 1000 7.8362767619244672e-14 7.8646222383090668e-14 I I #
-338 integer_attrib-name_attrib-gen-attrib $-1 -1 $-1 $-1 $271 2 1 2 1 1 1 1 1 1 1 1 1 1 1 0 1 1 1 @15 Вырез-Выт-нуть2 0 #
-339 face $407 -1 -1 $-1 $207 $408 $4 $-1 $409 reversed single F F #
-340 plane-surface $-1 -1 -1 $-1 -52.27472186466585 90.282391835315423 3.1991262943905734 -7.8646222383090699e-17 3.2526065174565217e-16 1 0 -1000 3.2526065174565219e-13 forward_v I I I I #
-341 vertex $-1 -1 -1 $-1 $305 $410 #
-342 straight-curve $-1 -1 -1 $-1 -37.274721864665857 90.282391835315423 3.1991262943905734 1000 7.8362767619244685e-14 7.8646222383090681e-14 I I #
-343 integer_attrib-name_attrib-gen-attrib $-1 -1 $-1 $-1 $276 2 1 2 1 1 1 1 1 1 1 1 1 1 1 0 1 1 1 @15 Вырез-Выт-нуть2 0 #
-344 face $411 -1 -1 $-1 $327 $335 $4 $-1 $412 reversed single F F #
-345 loop $-1 -1 -1 $-1 $-1 $413 $276 F unknown #
-346 cone-surface $-1 -1 -1 $-1 -37.274721864665857 41.43087906468822 43.421399378796515 1 7.8362767619244683e-17 7.8646222383090686e-17 6.9388939039072284e-15 0 -55 1 I I 0 1 55 forward I I I I #
-347 coedge $-1 -1 -1 $-1 $414 $415 $376 $416 forward $277 $-1 #
-348 coedge $-1 -1 -1 $-1 $417 $279 $415 $418 reversed $225 $-1 #
-349 coedge $-1 -1 -1 $-1 $279 $417 $280 $352 forward $225 $-1 #
-350 edge $-1 -1 -1 $-1 $353 0.87463953572468123 $419 1.7665698941134966 $279 $420 forward @7 unknown F #
-351 coedge $-1 -1 -1 $-1 $281 $280 $286 $358 reversed $188 $-1 #
-352 edge $-1 -1 -1 $-1 $421 0 $353 0.0050000000000000001 $349 $422 forward @7 unknown F #
-353 vertex $-1 -1 -1 $-1 $282 $423 #
-354 ellipse-curve $-1 -1 -1 $-1 -32.274721864665857 84.382391835315417 23.786391409132154 -1 -7.8362767619244683e-17 -7.8646222383090686e-17 0 0 -10.000000000000004 1 I I #
-355 straight-curve $-1 -1 -1 $-1 -37.274721864665857 74.382391835315403 3.1991262943905761 1000 7.8362767619244685e-14 7.8646222383090681e-14 I I #
-356 straight-curve $-1 -1 -1 $-1 -37.274721864665857 74.382391835315417 23.786391409132154 1000 7.8362767619244685e-14 7.8646222383090681e-14 I I #
-357 coedge $-1 -1 -1 $-1 $424 $286 $417 $425 forward $101 $-1 #
-358 edge $-1 -1 -1 $-1 $288 1.5707963267948966 $421 2.2669531178651123 $286 $426 forward @7 unknown F #
-359 point $-1 -1 -1 $-1 -37.274721864665857 74.382391835315403 3.1991262943905761 #
-360 point $-1 -1 -1 $-1 -37.274721864665857 74.382391835315417 23.786391409132154 #
-361 face $427 -1 -1 $-1 $315 $292 $4 $-1 $428 forward single F T -7.8646222383090686e-17 1 -1.570796326794897 0 #
-362 point $-1 -1 -1 $-1 -37.274721864665857 79.382391835315417 -1.8008737056094266 #
-363 coedge $-1 -1 -1 $-1 $376 $297 $413 $429 reversed $155 $-1 #
-364 coedge $-1 -1 -1 $-1 $313 $430 $297 $365 forward $335 $-1 #
-365 edge $-1 -1 -1 $-1 $431 1 $366 0 $364 $432 forward @7 unknown F #
-366 vertex $-1 -1 -1 $-1 $298 $433 #
-367 ellipse-curve $-1 -1 -1 $-1 -32.274721864665857 89.282391835315408 3.1991262943905738 1 7.8362767619244683e-17 7.8646222383090686e-17 0 0 4.9999999999999991 1 I I #
-368 ellipse-curve $-1 -1 -1 $-1 -32.274721864665857 79.382391835315417 3.1991262943905738 1 7.8362767619244683e-17 7.8646222383090686e-17 0 0 4.9999999999999991 1 I I #
-369 coedge $-1 -1 -1 $-1 $303 $302 $434 $435 forward $195 $-1 #
-370 coedge $-1 -1 -1 $-1 $321 $320 $302 $371 reversed $322 $-1 #
-371 edge $-1 -1 -1 $-1 $374 1 $436 0 $302 $437 forward @7 unknown F #
-372 coedge $-1 -1 -1 $-1 $438 $326 $303 $373 reversed $331 $-1 #
-373 edge $-1 -1 -1 $-1 $439 1 $341 0 $303 $440 forward @7 unknown F #
-374 vertex $-1 -1 -1 $-1 $371 $441 #
-375 straight-curve $-1 -1 -1 $-1 -32.274721864665857 77.382391835315403 3.1991262943905738 -0 -1000 -0 I I #
-376 coedge $-1 -1 -1 $-1 $306 $363 $347 $416 reversed $155 $-1 #
-377 point $-1 -1 -1 $-1 -32.274721864665857 74.382391835315403 3.1991262943905765 #
-378 point $-1 -1 -1 $-1 -32.274721864665857 74.382391835315417 23.786391409132154 #
-379 coedge $-1 -1 -1 $-1 $442 $310 $330 $401 forward $246 $-1 #
-380 coedge $-1 -1 -1 $-1 $310 $442 $334 $405 forward $246 $-1 #
-381 ellipse-curve $-1 -1 -1 $-1 -37.274721864665857 79.382391835315417 3.1991262943905734 -1 -7.8362767619244683e-17 -7.8646222383090686e-17 0 0 5 1 I I #
-382 straight-curve $-1 -1 -1 $-1 -37.274721864665857 94.282391835315408 3.1991262943905734 -1000 -7.8362767619244685e-14 -7.8646222383090681e-14 I I #
-383 integer_attrib-name_attrib-gen-attrib $-1 -1 $-1 $-1 $315 2 1 2 1 1 1 1 1 1 1 1 1 1 1 0 1 1 1 @15 Вырез-Выт-нуть2 0 #
-384 cone-surface $-1 -1 -1 $-1 -37.274721864665857 89.282391835315408 3.1991262943905734 1 7.8362767619244683e-17 7.8646222383090686e-17 0 0 -5 1 I I 0 1 5 forward I I I I #
-385 coedge $-1 -1 -1 $-1 $317 $443 $444 $445 reversed $101 $-1 #
-386 coedge $-1 -1 -1 $-1 $400 $438 $317 $387 forward $331 $-1 #
-387 edge $-1 -1 -1 $-1 $391 1 $446 0 $386 $447 forward @7 unknown F #
-388 coedge $-1 -1 -1 $-1 $434 $318 $438 $448 forward $390 $-1 #
-389 coedge $-1 -1 -1 $-1 $318 $434 $320 $393 reversed $390 $-1 #
-390 loop $-1 -1 -1 $-1 $-1 $434 $449 F unknown #
-391 vertex $-1 -1 -1 $-1 $448 $450 #
-392 straight-curve $-1 -1 -1 $-1 -37.274721864665857 77.382391835315403 26.299126294390572 0 1000 0 I I #
-393 edge $-1 -1 -1 $-1 $323 1 $436 0 $320 $451 forward @7 unknown F #
-394 face $452 -1 -1 $-1 $449 $322 $4 $-1 $453 forward single F F #
-395 point $-1 -1 -1 $-1 -37.274721864665857 77.382391835315403 26.299126294390572 #
-396 straight-curve $-1 -1 -1 $-1 -37.274721864665857 77.382391835315403 3.1991262943905734 1000 7.8362767619244685e-14 7.8646222383090681e-14 I I #
-397 integer_attrib-name_attrib-gen-attrib $-1 -1 $-1 $-1 $327 2 1 2 1 1 1 1 1 1 1 1 1 1 1 0 1 1 1 @15 Вырез-Выт-нуть2 0 #
-398 plane-surface $-1 -1 -1 $-1 -37.274721864665857 77.382391835315403 3.1991262943905734 -7.8646222383090686e-17 0 1 1000 0 7.8646222383090681e-14 forward_v I I I I #
-399 straight-curve $-1 -1 -1 $-1 -52.27472186466585 90.282391835315423 3.1991262943905734 0 -1000 3.2526065174565219e-13 I I #
-400 coedge $-1 -1 -1 $-1 $330 $386 $454 $455 reversed $331 $-1 #
-401 edge $-1 -1 -1 $-1 $332 1 $456 0 $379 $457 forward @7 unknown F #
-402 face $458 -1 -1 $-1 $361 $331 $4 $-1 $459 forward single F F #
-403 point $-1 -1 -1 $-1 -52.27472186466585 90.282391835315423 3.1991262943905734 #
-404 coedge $-1 -1 -1 $-1 $460 $334 $461 $462 forward $335 $-1 #
-405 edge $-1 -1 -1 $-1 $463 1 $336 0 $380 $464 forward @7 unknown F #
-406 point $-1 -1 -1 $-1 -52.27472186466585 94.282391835315408 3.1991262943905725 #
-407 integer_attrib-name_attrib-gen-attrib $-1 -1 $-1 $-1 $339 2 1 2 1 1 1 1 1 1 1 1 1 1 1 0 1 1 1 @15 Вырез-Выт-нуть2 0 #
-408 loop $-1 -1 -1 $-1 $-1 $444 $339 F unknown #
-409 plane-surface $-1 -1 -1 $-1 -52.27472186466585 90.282391835315423 16.199126294390574 7.8646222383090674e-17 0 -1 -1000 0 -7.8646222383090668e-14 forward_v I I I I #
-410 point $-1 -1 -1 $-1 -32.274721864665864 90.282391835315423 3.1991262943905778 #
-411 integer_attrib-name_attrib-gen-attrib $-1 -1 $-1 $-1 $344 2 1 2 1 1 1 1 1 1 1 1 1 1 1 0 1 1 1 @15 Вырез-Выт-нуть2 0 #
-412 plane-surface $-1 -1 -1 $-1 -37.274721864665857 94.282391835315408 -1.8008737056094264 7.8362767619244683e-17 -1 0 1000 7.8362767619244685e-14 0 forward_v I I I I #
-413 coedge $-1 -1 -1 $-1 $465 $466 $363 $429 forward $345 $-1 #
-414 coedge $-1 -1 -1 $-1 $467 $347 $466 $468 reversed $277 $-1 #
-415 coedge $-1 -1 -1 $-1 $347 $467 $348 $418 forward $277 $-1 #
-416 edge $-1 -1 -1 $-1 $419 -1.7665698941134909 $469 1.0843309037874747 $347 $470 forward @7 unknown F #
-417 coedge $-1 -1 -1 $-1 $349 $348 $357 $425 reversed $225 $-1 #
-418 edge $-1 -1 -1 $-1 $471 0 $419 0.0050000000000000001 $415 $472 forward @7 unknown F #
-419 vertex $-1 -1 -1 $-1 $350 $473 #
-420 ellipse-curve $-1 -1 -1 $-1 -32.274721864665857 42.180210060381789 59.05643327805349 1 7.8362767619244683e-17 7.8646222383090686e-17 6.9388939039072284e-15 0 -45.000000000000028 1 I I #
-421 vertex $-1 -1 -1 $-1 $358 $474 #
-422 straight-curve $-1 -1 -1 $-1 -37.274721864665857 76.709267876236581 30.199126294390577 1000 7.8362767619244685e-14 7.8646222383090681e-14 I I #
-423 point $-1 -1 -1 $-1 -32.274721864665857 76.709267876236581 30.199126294390577 #
-424 coedge $-1 -1 -1 $-1 $475 $357 $467 $476 forward $101 $-1 #
-425 edge $-1 -1 -1 $-1 $421 0.87463953572468123 $471 1.7665698941134966 $357 $477 forward @7 unknown F #
-426 ellipse-curve $-1 -1 -1 $-1 -37.274721864665857 84.382391835315417 23.786391409132154 -1 -7.8362767619244683e-17 -7.8646222383090686e-17 0 0 -10.000000000000004 1 I I #
-427 integer_attrib-name_attrib-gen-attrib $-1 -1 $-1 $-1 $361 2 1 2 1 1 1 1 1 1 1 1 1 1 1 0 1 1 1 @15 Вырез-Выт-нуть2 0 #
-428 cone-surface $-1 -1 -1 $-1 -37.274721864665857 79.382391835315417 3.1991262943905734 1 7.8362767619244683e-17 7.8646222383090686e-17 0 0 -5 1 I I 0 1 5 forward I I I I #
-429 edge $-1 -1 -1 $-1 $469 1.0843309037874711 $431 1.8512260402971901 $413 $478 forward @7 unknown F #
-430 coedge $-1 -1 -1 $-1 $364 $460 $465 $479 forward $335 $-1 #
-431 vertex $-1 -1 -1 $-1 $429 $480 #
-432 straight-curve $-1 -1 -1 $-1 -32.274721864665857 94.282391835315408 -1.8008737056094259 -0 -0 -1000 I I #
-433 point $-1 -1 -1 $-1 -32.274721864665857 94.282391835315408 3.1991262943905743 #
-434 coedge $-1 -1 -1 $-1 $389 $388 $369 $435 reversed $390 $-1 #
-435 edge $-1 -1 -1 $-1 $436 1 $439 0 $369 $481 forward @7 unknown F #
-436 vertex $-1 -1 -1 $-1 $393 $482 #
-437 straight-curve $-1 -1 -1 $-1 -32.274721864665857 77.382391835315403 3.1991262943905738 0 0 1000 I I #
-438 coedge $-1 -1 -1 $-1 $386 $372 $388 $448 reversed $331 $-1 #
-439 vertex $-1 -1 -1 $-1 $448 $483 #
-440 straight-curve $-1 -1 -1 $-1 -32.274721864665857 90.282391835315423 3.1991262943905738 -0 -0 -1000 I I #
-441 point $-1 -1 -1 $-1 -32.274721864665857 77.382391835315403 3.1991262943905738 #
-442 coedge $-1 -1 -1 $-1 $380 $379 $484 $485 forward $246 $-1 #
-443 coedge $-1 -1 -1 $-1 $385 $475 $460 $486 forward $101 $-1 #
-444 coedge $-1 -1 -1 $-1 $461 $454 $385 $445 forward $408 $-1 #
-445 edge $-1 -1 -1 $-1 $446 1 $487 0 $444 $488 forward @7 unknown F #
-446 vertex $-1 -1 -1 $-1 $445 $489 #
-447 straight-curve $-1 -1 -1 $-1 -37.274721864665857 90.282391835315423 3.1991262943905734 -0 -0 -1000 I I #
-448 edge $-1 -1 -1 $-1 $391 1 $439 0 $388 $490 forward @7 unknown F #
-449 face $491 -1 -1 $-1 $402 $390 $4 $-1 $492 forward single F F #
-450 point $-1 -1 -1 $-1 -37.274721864665864 90.282391835315423 26.299126294390572 #
-451 straight-curve $-1 -1 -1 $-1 -37.274721864665857 77.382391835315403 26.299126294390572 1000 7.8362767619244685e-14 7.8646222383090681e-14 I I #
-452 integer_attrib-name_attrib-gen-attrib $-1 -1 $-1 $-1 $394 2 1 2 1 1 1 1 1 1 1 1 1 1 1 0 1 1 1 @15 Вырез-Выт-нуть2 0 #
-453 plane-surface $-1 -1 -1 $-1 -37.274721864665857 77.382391835315403 3.1991262943905734 -7.8362767619244683e-17 1 0 -1000 -7.8362767619244685e-14 0 forward_v I I I I #
-454 coedge $-1 -1 -1 $-1 $444 $484 $400 $455 forward $408 $-1 #
-455 edge $-1 -1 -1 $-1 $456 1 $446 0 $454 $493 forward @7 unknown F #
-456 vertex $-1 -1 -1 $-1 $401 $494 #
-457 straight-curve $-1 -1 -1 $-1 -52.27472186466585 90.282391835315423 3.1991262943905734 0 0 1000 I I #
-458 integer_attrib-name_attrib-gen-attrib $-1 -1 $-1 $-1 $402 2 1 2 1 1 1 1 1 1 1 1 1 1 1 0 1 1 1 @15 Вырез-Выт-нуть2 0 #
-459 plane-surface $-1 -1 -1 $-1 -37.274721864665857 90.282391835315423 3.1991262943905734 7.8362767619244683e-17 -1 0 1000 7.8362767619244685e-14 0 forward_v I I I I #
-460 coedge $-1 -1 -1 $-1 $430 $404 $443 $486 reversed $335 $-1 #
-461 coedge $-1 -1 -1 $-1 $484 $444 $404 $462 reversed $408 $-1 #
-462 edge $-1 -1 -1 $-1 $463 1 $487 0 $404 $495 forward @7 unknown F #
-463 vertex $-1 -1 -1 $-1 $485 $496 #
-464 straight-curve $-1 -1 -1 $-1 -52.27472186466585 94.282391835315408 3.1991262943905725 -0 -1.0675221390626507e-12 -1000 I I #
-465 coedge $-1 -1 -1 $-1 $497 $413 $430 $479 reversed $345 $-1 #
-466 coedge $-1 -1 -1 $-1 $413 $497 $414 $468 forward $345 $-1 #
-467 coedge $-1 -1 -1 $-1 $415 $414 $424 $476 reversed $277 $-1 #
-468 edge $-1 -1 -1 $-1 $498 0 $469 0.0050000000000000001 $466 $499 forward @7 unknown F #
-469 vertex $-1 -1 -1 $-1 $416 $500 #
-470 ellipse-curve $-1 -1 -1 $-1 -32.274721864665864 88.282391835315423 68.199126294390581 -1 -7.8362767619244683e-17 -7.8646222383090686e-17 0 0 2.0000000000000018 1 I I #
-471 vertex $-1 -1 -1 $-1 $425 $501 #
-472 straight-curve $-1 -1 -1 $-1 -37.274721864665864 86.320596866169311 67.810075527737951 1000 7.8362767619244685e-14 7.8646222383090681e-14 I I #
-473 point $-1 -1 -1 $-1 -32.274721864665864 86.320596866169311 67.810075527737951 #
-474 point $-1 -1 -1 $-1 -37.274721864665857 76.709267876236581 30.199126294390577 #
-475 coedge $-1 -1 -1 $-1 $443 $424 $497 $502 forward $101 $-1 #
-476 edge $-1 -1 -1 $-1 $471 -1.7665698941134909 $498 1.0843309037874747 $424 $503 forward @7 unknown F #
-477 ellipse-curve $-1 -1 -1 $-1 -37.274721864665857 42.180210060381789 59.05643327805349 1 7.8362767619244683e-17 7.8646222383090686e-17 6.9388939039072284e-15 0 -45.000000000000028 1 I I #
-478 ellipse-curve $-1 -1 -1 $-1 -32.274721864665857 41.43087906468822 43.421399378796515 -1 -7.8362767619244683e-17 -7.8646222383090686e-17 -6.9388939039072284e-15 0 55 1 I I #
-479 edge $-1 -1 -1 $-1 $504 0 $431 0.0050000000000000001 $430 $505 forward @7 unknown F #
-480 point $-1 -1 -1 $-1 -32.274721864665857 94.282391835315423 28.199126294390577 #
-481 straight-curve $-1 -1 -1 $-1 -32.274721864665857 77.382391835315403 26.299126294390572 0 1000 0 I I #
-482 point $-1 -1 -1 $-1 -32.274721864665857 77.382391835315403 26.299126294390572 #
-483 point $-1 -1 -1 $-1 -32.274721864665857 90.282391835315423 26.299126294390572 #
-484 coedge $-1 -1 -1 $-1 $454 $461 $442 $485 reversed $408 $-1 #
-485 edge $-1 -1 -1 $-1 $456 1 $463 0 $442 $506 forward @7 unknown F #
-486 edge $-1 -1 -1 $-1 $504 1 $487 0 $443 $507 forward @7 unknown F #
-487 vertex $-1 -1 -1 $-1 $486 $508 #
-488 straight-curve $-1 -1 -1 $-1 -37.274721864665864 90.282391835315423 16.199126294390574 0 1000 0 I I #
-489 point $-1 -1 -1 $-1 -37.274721864665857 90.282391835315423 16.199126294390574 #
-490 straight-curve $-1 -1 -1 $-1 -37.274721864665857 90.282391835315423 26.299126294390572 1000 7.8362767619244685e-14 7.8646222383090681e-14 I I #
-491 integer_attrib-name_attrib-gen-attrib $-1 -1 $-1 $-1 $449 2 1 2 1 1 1 1 1 1 1 1 1 1 1 0 1 1 1 @15 Вырез-Выт-нуть2 0 #
-492 plane-surface $-1 -1 -1 $-1 -37.274721864665857 77.382391835315403 26.299126294390572 7.8646222383090686e-17 0 -1 -1000 0 -7.8646222383090681e-14 forward_v I I I I #
-493 straight-curve $-1 -1 -1 $-1 -52.27472186466585 90.282391835315423 16.199126294390574 1000 7.8362767619244672e-14 7.8646222383090668e-14 I I #
-494 point $-1 -1 -1 $-1 -52.27472186466585 90.282391835315423 16.199126294390574 #
-495 straight-curve $-1 -1 -1 $-1 -52.27472186466585 94.282391835315423 16.199126294390574 1000 7.8362767619244672e-14 7.8646222383090668e-14 I I #
-496 point $-1 -1 -1 $-1 -52.27472186466585 94.282391835315423 16.199126294390574 #
-497 coedge $-1 -1 -1 $-1 $466 $465 $475 $502 reversed $345 $-1 #
-498 vertex $-1 -1 -1 $-1 $476 $509 #
-499 straight-curve $-1 -1 -1 $-1 -37.274721864665864 90.050373449301361 69.134134857243183 1000 7.8362767619244685e-14 7.8646222383090681e-14 I I #
-500 point $-1 -1 -1 $-1 -32.274721864665864 90.050373449301361 69.134134857243183 #
-501 point $-1 -1 -1 $-1 -37.274721864665864 86.320596866169311 67.810075527737951 #
-502 edge $-1 -1 -1 $-1 $498 1.0843309037874711 $504 1.8512260402971901 $475 $510 forward @7 unknown F #
-503 ellipse-curve $-1 -1 -1 $-1 -37.274721864665864 88.282391835315423 68.199126294390581 -1 -7.8362767619244683e-17 -7.8646222383090686e-17 0 0 2.0000000000000018 1 I I #
-504 vertex $-1 -1 -1 $-1 $502 $511 #
-505 straight-curve $-1 -1 -1 $-1 -37.274721864665857 94.282391835315423 28.199126294390577 1000 7.8362767619244685e-14 7.8646222383090681e-14 I I #
-506 straight-curve $-1 -1 -1 $-1 -52.27472186466585 90.282391835315423 16.199126294390574 0 1000 0 I I #
-507 straight-curve $-1 -1 -1 $-1 -37.274721864665857 94.282391835315408 -1.8008737056094264 -0 -0 -1000 I I #
-508 point $-1 -1 -1 $-1 -37.274721864665864 94.282391835315423 16.199126294390574 #
-509 point $-1 -1 -1 $-1 -37.274721864665864 90.050373449301361 69.134134857243183 #
-510 ellipse-curve $-1 -1 -1 $-1 -37.274721864665857 41.43087906468822 43.421399378796515 -1 -7.8362767619244683e-17 -7.8646222383090686e-17 -6.9388939039072284e-15 0 55 1 I I #
-511 point $-1 -1 -1 $-1 -37.274721864665857 94.282391835315423 28.199126294390577 #
End-of-ACIS-data 